<?xml version="1.0" encoding="utf-8"?>
<svg version="1.1" id="Calque_1" xmlns="http://www.w3.org/2000/svg" xmlns:xlink="http://www.w3.org/1999/xlink" x="0px" y="0px"
	 viewBox="0 0 432 432">
<style type="text/css">
	.st0{fill:#A30006;}
</style>
<g>
	<path class="st0" d="M267.5,150.4c0.1-0.4,0.2-1-1-1.2c-5-0.8-11,7.8-12.9,7.5c-2.6-0.4-1.3-4.8-1.4-6.9c-0.2-4.9-2.7-8.9-4.5-9.2
		c-1.3-0.2-2.6,1.7-2.9,3.7c-0.7,4.5,1.1,9,6.4,24.6C251.4,168.8,266.7,155.6,267.5,150.4z"/>
	<path class="st0" d="M249.9,211.2c-5-0.8-11,7.8-12.9,7.5c-2.6-0.4-1.3-4.8-1.4-6.9c-0.2-4.9-2.7-8.9-4.5-9.2
		c-1.3-0.2-2.6,1.7-2.9,3.7c-0.7,4.5,1.1,9,6.4,24.6c0.1-0.1,15.5-13.3,16.3-18.5C250.9,212.1,251,211.4,249.9,211.2z"/>
	<path class="st0" d="M138.8,110.3c3.9-15.9,5.3-20.6,4.2-25.1c-0.5-2-1.9-3.7-3.2-3.4c-1.8,0.4-3.9,4.6-3.7,9.5
		c0.1,2.1,1.8,6.3-0.8,7c-1.9,0.5-8.7-7.5-13.6-6.3c-1.1,0.3-0.9,0.9-0.8,1.3C122.3,98.5,138.7,110.2,138.8,110.3z"/>
	<path class="st0" d="M198.6,283.6c-1.8,0.4-3.9,4.6-3.7,9.5c0.1,2.1,1.8,6.3-0.8,7c-1.9,0.5-8.7-7.5-13.6-6.3
		c-1.1,0.3-0.9,0.9-0.8,1.3c1.3,5.1,17.7,16.9,17.9,17c3.9-15.9,5.3-20.6,4.2-25.1C201.3,285,199.9,283.2,198.6,283.6z"/>
	<path class="st0" d="M226.8,186.6c0-0.2,3.4-20.1,0.7-24.6c-0.2-0.3-0.5-0.9-1.5-0.3c-4.3,2.6-3.4,13-5.2,14
		c-2.2,1.3-4.1-2.9-5.5-4.4c-3.3-3.6-7.8-5.1-9.3-4.2c-1.1,0.7-0.9,3,0.2,4.7C208.5,175.7,212.8,178.1,226.8,186.6z"/>
	<path class="st0" d="M289.1,168.5c-1.1,0.3-0.9,0.9-0.8,1.3c1.3,5.1,17.7,16.9,17.9,17c3.9-15.9,5.3-20.6,4.2-25.1
		c-0.5-2-1.9-3.7-3.2-3.4c-1.8,0.4-3.9,4.6-3.7,9.5c0.1,2.1,1.8,6.3-0.8,7C300.7,175.3,293.9,167.3,289.1,168.5z"/>
	<path class="st0" d="M341.4,112c0.1-0.4,0.2-1-1-1.2c-5-0.8-11,7.8-12.9,7.5c-2.6-0.4-1.3-4.8-1.4-6.9c-0.2-4.9-2.7-8.9-4.5-9.2
		c-1.3-0.2-2.6,1.7-2.9,3.7c-0.7,4.5,1.1,9,6.4,24.6C325.3,130.4,340.6,117.3,341.4,112z"/>
	<path class="st0" d="M216,122.8c-121.3-145.6-199.1,18-91.6,140.4c38.2,43.5,67.7,61.7,91.6,103.2c23.8-41.5,53.4-59.7,91.6-103.2
		C415.1,140.8,337.3-22.8,216,122.8z M322.1,98.9c2.6,0.4,7,3.5,7.4,13.7c0.4-0.1,6.4-5.9,11.5-5.1c1,0.2,4.4,1.2,3.8,5.2
		c-1,6.4-18.5,22.5-20.5,22.2c-0.7-0.1-1.2-0.5-1.6-1.2c0-0.1-8.4-21.1-7.3-28.1C315.9,101.8,318.6,98.4,322.1,98.9z M304.7,73.2
		c1.7-1.6,3.2-0.3,3.6,0.1c2,2.1,1.2,6.8,1.3,7c4.9-3,7.7-2,8.7-0.9c1.4,1.5,0.6,3.8-0.9,5.3c-2.9,2.7-15.3,5.5-15.4,5.5
		c-0.5,0-0.8-0.1-1.1-0.4C300.1,88.9,302,75.6,304.7,73.2z M306.2,155c3.4-0.9,6.4,2.4,7.3,6c1.7,6.9-4.7,28.6-4.7,28.6
		c-0.3,0.7-0.9,1.2-1.5,1.4c-2,0.5-20.9-14-22.4-20.2c-1-3.9,2.3-5.3,3.3-5.5c5-1.2,11.5,4,11.9,4.1
		C299.6,159.1,303.7,155.6,306.2,155z M295,135c7.7-5.4,12.4-3.9,14.1-2.3c2.4,2.3,1.3,6.2-1.1,8.7c-4.5,4.7-24.5,10.4-24.6,10.4
		c-0.7,0.1-1.4-0.1-1.8-0.5c-1.3-1.3,0.6-23.1,4.7-27.4c2.6-2.7,5.2-0.8,5.9-0.2C295.7,127.1,294.9,134.7,295,135z M280,91.9
		c1.7-1.6,3.2-0.3,3.6,0.1c2,2.1,1.2,6.8,1.3,7c4.9-3,7.7-2,8.7-0.9c1.4,1.5,0.6,3.8-0.9,5.3c-2.9,2.7-15.3,5.5-15.4,5.5
		c-0.5,0-0.8-0.1-1.1-0.4C275.4,107.7,277.4,94.4,280,91.9z M254.5,255.5c1.6-1.1,3.9-0.1,5.1,1.7c2.3,3.3,3.3,16,3.3,16
		c0,0.5-0.2,0.8-0.5,1c-0.9,0.7-13.8-3.1-15.9-6.1c-1.3-1.9,0.1-3.2,0.6-3.6c2.4-1.7,6.9-0.3,7.1-0.3
		C251.8,259,253.3,256.4,254.5,255.5z M254,193.9c-0.2-2.5,2-2.9,2.6-2.9c3.2-0.2,6.5,3.7,6.7,3.8c0.8-6.2,3.7-7.8,5.3-7.9
		c2.2-0.1,3.6,2.1,3.7,4.4c0.3,4.3-6,16.7-6,16.7c-0.3,0.4-0.7,0.6-1.1,0.6C264,208.6,254.2,197.8,254,193.9z M245.5,103.8
		c2.9-0.2,6,3.4,6.2,3.5c0.8-5.7,3.4-7.2,4.9-7.3c2-0.1,3.3,2,3.4,4.1c0.2,4-5.5,15.3-5.5,15.4c-0.3,0.4-0.6,0.6-1,0.6
		c-1.1,0.1-10.1-9.9-10.3-13.5C242.9,104.3,244.9,103.9,245.5,103.8z M241.5,143.9c0.6-3.7,3.2-7.2,6.8-6.6c2.6,0.4,7,3.5,7.4,13.7
		c0.4-0.1,6.4-5.9,11.5-5.1c1,0.2,4.4,1.2,3.8,5.2c-1,6.4-18.5,22.5-20.5,22.2c-0.7-0.1-1.2-0.5-1.6-1.2
		C248.8,171.9,240.4,150.9,241.5,143.9z M208.8,135.6c2.8-1.4,7.4,0.8,7.7,0.8c-1.7-6,0.3-8.7,1.7-9.4c1.9-1,4.2,0.5,5.2,2.6
		c2,3.9,1.2,17.7,1.2,17.7c-0.1,0.5-0.4,0.8-0.7,1c-1.1,0.6-14.4-5.4-16.2-8.9C206.5,137.1,208.3,135.9,208.8,135.6z M204.3,164.2
		c2.2-1.3,7.6-1.8,14.5,5.8c0.2-0.3,1.1-8.6,5.6-11.3c0.9-0.5,4.1-1.9,6.2,1.6c3.3,5.5,0.2,29.1-1.6,30.2c-0.6,0.3-1.3,0.4-2,0.1
		c-0.1,0-19.9-10.8-23.6-16.9C201.4,170.4,201.2,166,204.3,164.2z M218.6,235.5c0.5,1.9-1.3,3.6-3.3,4.2c-3.9,1-16.1-2.4-16.2-2.4
		c-0.4-0.2-0.7-0.5-0.8-0.8c-0.3-1.1,7.7-11.9,11.2-12.8c2.2-0.6,3,1.2,3.1,1.8c0.7,2.8-2.1,6.5-2.2,6.7
		C216.2,231.8,218.2,234.1,218.6,235.5z M198.3,199.3c2.9-0.2,6,3.4,6.2,3.5c0.8-5.7,3.4-7.2,4.9-7.3c2-0.1,3.3,2,3.4,4.1
		c0.2,4-5.5,15.3-5.5,15.4c-0.3,0.4-0.6,0.6-1,0.6c-1.1,0.1-10.1-9.9-10.3-13.5C195.8,199.7,197.8,199.3,198.3,199.3z M194.9,173.5
		c-0.2,6.5-11.2,24.2-11.2,24.2c-0.5,0.6-1.1,0.8-1.7,0.8c-1.9,0-15.1-17.5-14.9-23.4c0.1-3.7,3.3-4.1,4.3-4.1
		c4.8,0.1,9.2,6.3,9.6,6.5c2.1-9.2,6.6-11.2,9-11.2C193.1,166.5,194.9,170,194.9,173.5z M168.1,112c2.6-2.7,5.2-0.8,5.9-0.2
		c3.4,3.3,2.6,10.9,2.7,11.3c7.7-5.4,12.4-3.9,14.1-2.3c2.4,2.3,1.3,6.2-1.1,8.7c-4.5,4.7-24.5,10.4-24.6,10.4
		c-0.7,0.1-1.4-0.1-1.8-0.5C162.1,138.1,164,116.3,168.1,112z M121,88.8c5-1.2,11.5,4,11.9,4.1c-0.5-10.2,3.6-13.7,6.2-14.3
		c3.4-0.9,6.4,2.4,7.3,6c1.7,6.9-4.7,28.6-4.7,28.6c-0.3,0.7-0.9,1.2-1.5,1.4c-2,0.5-20.9-14-22.4-20.2C116.7,90.3,120,89,121,88.8z
		 M85.5,112.3c1.4-1.6,5.7-3.4,13.2,0.9c0.1-0.3-1.3-7.2,1.6-10.5c0.6-0.6,2.8-2.6,5.4-0.3c4.1,3.6,7.7,23.4,6.5,24.7
		c-0.4,0.4-0.9,0.7-1.6,0.6c0,0-18.8-3.6-23.4-7.5C84.8,118.1,83.5,114.6,85.5,112.3z M91.7,146c1.1-1.3,4.4-2.7,10.2,0.7
		c0.1-0.3-1-5.6,1.2-8.2c0.4-0.5,2.2-2,4.2-0.3c3.2,2.8,5.9,18.2,5.1,19.2c-0.3,0.3-0.7,0.5-1.3,0.5c0,0-14.6-2.8-18.1-5.9
		C91.1,150.5,90.1,147.8,91.7,146z M91.9,181c1.4-1.6,5.7-3.4,13.2,0.9c0.1-0.3-1.3-7.2,1.6-10.5c0.6-0.6,2.8-2.6,5.4-0.3
		c4.1,3.6,7.7,23.4,6.5,24.7c-0.4,0.4-0.9,0.7-1.6,0.6c0,0-18.8-3.6-23.4-7.5C91.2,186.7,89.9,183.2,91.9,181z M121.4,237.1
		c-0.3,0.4-0.7,0.6-1.1,0.6c-1.2,0.1-11-10.7-11.2-14.7c-0.2-2.5,2-2.9,2.6-2.9c3.2-0.2,6.5,3.7,6.7,3.8c0.8-6.2,3.7-7.8,5.3-7.9
		c2.2-0.1,3.6,2.1,3.7,4.4C127.7,224.7,121.4,237.1,121.4,237.1z M134.7,144c3.2-0.2,6.5,3.7,6.7,3.8c0.8-6.2,3.7-7.8,5.3-7.9
		c2.2-0.1,3.6,2.1,3.7,4.4c0.3,4.3-6,16.7-6,16.7c-0.3,0.4-0.7,0.6-1.1,0.6c-1.2,0.1-11-10.7-11.2-14.7
		C131.9,144.4,134,144,134.7,144z M154.6,271.3c-0.1,0.5-0.4,0.8-0.7,1c-1.1,0.6-14.4-5.4-16.2-8.9c-1.1-2.2,0.6-3.5,1.2-3.7
		c2.8-1.4,7.4,0.8,7.7,0.8c-1.7-6,0.3-8.7,1.7-9.4c1.9-1,4.2,0.5,5.2,2.6C155.4,257.4,154.6,271.3,154.6,271.3z M154.1,200.8
		c-2.9,2.7-15.3,5.5-15.4,5.5c-0.5,0-0.8-0.1-1.1-0.4c-0.8-0.8,1.2-14.1,3.8-16.6c1.7-1.6,3.2-0.3,3.6,0.1c2,2.1,1.2,6.8,1.3,7
		c4.9-3,7.7-2,8.7-0.9C156.4,197,155.6,199.3,154.1,200.8z M157.6,228.5c-1.1-2.2,0.6-3.5,1.2-3.7c2.8-1.4,7.4,0.8,7.7,0.8
		c-1.7-6,0.3-8.7,1.7-9.4c1.9-1,4.2,0.5,5.2,2.6c2,3.9,1.2,17.7,1.2,17.7c-0.1,0.5-0.4,0.8-0.7,1C172.7,238,159.4,232,157.6,228.5z
		 M171.8,260.3c-0.2-2.5,2-2.9,2.6-2.9c3.2-0.2,6.5,3.7,6.7,3.8c0.8-6.2,3.7-7.8,5.3-7.9c2.2-0.1,3.6,2.1,3.7,4.4
		c0.3,4.3-6,16.7-6,16.7c-0.3,0.4-0.7,0.6-1.1,0.6C181.8,275.1,172,264.3,171.8,260.3z M200.4,314.9c-0.3,0.7-0.9,1.2-1.5,1.4
		c-2,0.5-20.9-14-22.4-20.2c-1-3.9,2.3-5.3,3.3-5.5c5-1.2,11.5,4,11.9,4.1c-0.5-10.2,3.6-13.7,6.2-14.3c3.4-0.9,6.4,2.4,7.3,6
		C206.9,293.1,200.4,314.8,200.4,314.9z M204.8,266c-1.1-2.2,0.6-3.5,1.2-3.7c2.8-1.4,7.4,0.8,7.7,0.8c-1.7-6,0.3-8.7,1.7-9.4
		c1.9-1,4.2,0.5,5.2,2.6c2,3.9,1.2,17.7,1.2,17.7c-0.1,0.5-0.4,0.8-0.7,1C219.8,275.5,206.6,269.5,204.8,266z M224.4,330.7
		c-2.9,2.7-15.3,5.5-15.4,5.5c-0.5,0-0.8-0.1-1.1-0.4c-0.8-0.8,1.2-14.1,3.8-16.6c1.7-1.6,3.2-0.3,3.6,0.1c2,2.1,1.2,6.8,1.3,7
		c4.9-3,7.7-2,8.7-0.9C226.7,326.9,225.9,329.3,224.4,330.7z M232.1,234c0-0.1-8.4-21.1-7.3-28.1c0.6-3.7,3.2-7.2,6.8-6.6
		c2.6,0.4,7,3.5,7.4,13.7c0.4-0.1,6.4-5.9,11.5-5.1c1,0.2,4.4,1.2,3.8,5.2c-1,6.4-18.5,22.5-20.5,22.2
		C233.1,235.1,232.5,234.7,232.1,234z M261,294.1c-4.5,4.7-24.5,10.4-24.6,10.4c-0.7,0.1-1.4-0.1-1.8-0.5
		c-1.3-1.3,0.6-23.1,4.7-27.4c2.6-2.7,5.2-0.8,5.9-0.2c3.4,3.3,2.6,10.9,2.7,11.3c7.7-5.4,12.4-3.9,14.1-2.3
		C264.4,287.7,263.4,291.6,261,294.1z M275,237.3c-1.1,0.1-10.1-9.9-10.3-13.5c-0.1-2.3,1.8-2.7,2.4-2.7c2.9-0.2,6,3.4,6.2,3.5
		c0.8-5.7,3.4-7.2,4.9-7.3c2-0.1,3.3,2,3.4,4.1c0.2,4-5.5,15.3-5.5,15.4C275.7,237,275.3,237.2,275,237.3z M288.1,266.7
		c-0.3,0.4-0.6,0.6-1,0.6c-1.1,0.1-10.1-9.9-10.3-13.5c-0.1-2.3,1.8-2.7,2.4-2.7c2.9-0.2,6,3.4,6.2,3.5c0.8-5.7,3.4-7.2,4.9-7.3
		c2-0.1,3.3,2,3.4,4.1C293.9,255.3,288.1,266.7,288.1,266.7z M315.8,233.9c-0.3,0.7-0.9,1.2-1.5,1.4c-2,0.5-20.9-14-22.4-20.2
		c-1-3.9,2.3-5.3,3.3-5.5c5-1.2,11.5,4,11.9,4.1c-0.5-10.2,3.6-13.7,6.2-14.3c3.4-0.9,6.4,2.4,7.3,6
		C322.2,212.2,315.8,233.9,315.8,233.9z M347.7,181.6c0,0-18.8-3.6-23.4-7.5c-2.4-2.1-3.7-5.6-1.7-7.8c1.4-1.6,5.7-3.4,13.2,0.9
		c0.1-0.3-1.3-7.2,1.6-10.5c0.6-0.6,2.8-2.6,5.4-0.3c4.1,3.6,7.7,23.4,6.5,24.7C349,181.4,348.4,181.6,347.7,181.6z"/>
	<path class="st0" d="M314,202.6c-1.8,0.4-3.9,4.6-3.7,9.5c0.1,2.1,1.8,6.3-0.8,7c-1.9,0.5-8.7-7.5-13.6-6.3
		c-1.1,0.3-0.9,0.9-0.8,1.3c1.3,5.1,17.7,16.9,17.9,17c3.9-15.9,5.3-20.6,4.2-25.1C316.7,204.1,315.2,202.3,314,202.6z"/>
</g>
</svg>
